<?xml version="1.0" encoding="utf-8"?>
<!-- Generator: Adobe Illustrator 21.0.0, SVG Export Plug-In . SVG Version: 6.00 Build 0)  -->
<svg version="1.1" id="Слой_1" xmlns="http://www.w3.org/2000/svg" xmlns:xlink="http://www.w3.org/1999/xlink" x="0px" y="0px"
	 viewBox="0 0 64 64" style="enable-background:new 0 0 64 64;" xml:space="preserve">
<style type="text/css">
	.st0{fill:#9858AE;}
	.st1{fill:#1A9777;}
	.st2{fill:#1794D4;}
	.st3{fill:#D94700;}
	.st4{fill:#F4A952;}
	.st5{fill:#50BCAB;}
	.st6{fill:#B29D12;}
	.st7{fill:#C8283C;}
	.st8{fill:#1094D2;}
	.st9{fill:#FFDD00;}
	.st10{fill-rule:evenodd;clip-rule:evenodd;fill:#1A9777;}
</style>
<g>
	<path class="st9" d="M35.5,18.6c-0.7-1.3-2-2-3.5-2s-2.7,0.7-3.5,2L11.6,48c-0.7,1.3-0.7,2.7,0,4c0.7,1.3,2,2,3.5,2H49
		c1.4,0,2.7-0.7,3.5-2c0.7-1.3,0.7-2.7,0-4L35.5,18.6z M50.7,51c-0.4,0.6-1,1-1.7,1H15c-0.7,0-1.4-0.4-1.7-1s-0.4-1.4,0-2l17-29.4
		c0.4-0.6,1-1,1.7-1s1.4,0.4,1.7,1l17,29.4C51.1,49.6,51.1,50.4,50.7,51z"/>
	<path d="M62.4,52.5L36.3,7.3c-0.9-1.6-2.5-2.5-4.3-2.5s-3.4,0.9-4.3,2.5L1.6,52.5c-0.9,1.6-0.9,3.4,0,5S4.1,60,5.9,60h52.2
		c1.8,0,3.4-0.9,4.3-2.5C63.4,56,63.4,54.1,62.4,52.5z M60.7,56.5c-0.5,0.9-1.5,1.5-2.6,1.5H5.9c-1.1,0-2.1-0.6-2.6-1.5
		c-0.5-0.9-0.5-2.1,0-3L29.4,8.3c0.5-0.9,1.5-1.5,2.6-1.5s2.1,0.6,2.6,1.5l26.1,45.2C61.3,54.5,61.3,55.6,60.7,56.5z M34.9,30.4
		L32,40l-2.9-9.6c-0.6-1.9,0.9-3.9,2.9-3.9S35.4,28.5,34.9,30.4z M34.5,45.5c0,1.4-1.1,2.5-2.5,2.5s-2.5-1.1-2.5-2.5
		c0-1.4,1.1-2.5,2.5-2.5S34.5,44.1,34.5,45.5z"/>
</g>
</svg>
