<?xml version="1.0" encoding="utf-8"?>
<!-- Generator: Adobe Illustrator 21.0.0, SVG Export Plug-In . SVG Version: 6.00 Build 0)  -->
<svg version="1.1" id="Слой_1" xmlns="http://www.w3.org/2000/svg" xmlns:xlink="http://www.w3.org/1999/xlink" x="0px" y="0px"
	 viewBox="0 0 64 64" style="enable-background:new 0 0 64 64;" xml:space="preserve">
<style type="text/css">
	.st0{fill:#9858AE;}
	.st1{fill:#1A9777;}
	.st2{fill:#1794D4;}
	.st3{fill:#D94700;}
	.st4{fill:#F4A952;}
	.st5{fill:#50BCAB;}
	.st6{fill:#B29D12;}
	.st7{fill:#C8283C;}
	.st8{fill:#1094D2;}
	.st9{fill:#FFDD00;}
	.st10{fill-rule:evenodd;clip-rule:evenodd;fill:#1A9777;}
</style>
<g>
	<path d="M49,0H17c-2.8,0-5,2.2-5,5v3h-1v5h1v3h-1v5h1v3h-1v5h1v30c0,2.8,2.2,5,5,5h32c2.8,0,5-2.2,5-5V5C54,2.2,51.8,0,49,0z
		 M52,59c0,1.7-1.3,3-3,3H17c-1.7,0-3-1.3-3-3V5c0-1.7,1.3-3,3-3h32c1.7,0,3,1.3,3,3V59z M16,52h34V10H16V52z M17,11h32v40H17V11z
		 M33,54c-1.7,0-3,1.3-3,3s1.3,3,3,3s3-1.3,3-3S34.7,54,33,54z M33,59c-1.1,0-2-0.9-2-2s0.9-2,2-2s2,0.9,2,2S34.1,59,33,59z M30,7.5
		C30,7.2,30.2,7,30.5,7h5C35.8,7,36,7.2,36,7.5S35.8,8,35.5,8h-5C30.2,8,30,7.8,30,7.5z M32.1,5.4C32,5.3,32,5.1,32,5
		c0-0.3,0.1-0.5,0.3-0.7c0.1-0.1,0.2-0.2,0.3-0.2c0.2-0.1,0.5-0.1,0.8,0c0.1,0,0.2,0.1,0.3,0.2C33.9,4.5,34,4.7,34,5
		c0,0.3-0.1,0.5-0.3,0.7c-0.1,0.1-0.2,0.2-0.3,0.2S33.1,6,33,6c-0.3,0-0.5-0.1-0.7-0.3C32.2,5.6,32.1,5.5,32.1,5.4z"/>
	<path class="st9" d="M46,26.3c0,1.1-0.9,2-2,2c-6.5,0-11.8,5.3-11.8,11.8c0,1.1-0.9,2-2,2s-2-0.9-2-2c0-8.7,7.1-15.8,15.8-15.8
		C45.1,24.3,46,25.1,46,26.3z M44,20c1.1,0,2-0.9,2-2s-0.9-2-2-2c-13.2,0-24,10.8-24,24c0,1.1,0.9,2,2,2s2-0.9,2-2
		C24,29,33,20,44,20z M44,32.5c-4.1,0-7.5,3.4-7.5,7.5c0,1.1,0.9,2,2,2s2-0.9,2-2c0-1.9,1.6-3.5,3.5-3.5c1.1,0,2-0.9,2-2
		S45.1,32.5,44,32.5z"/>
</g>
</svg>
