<?xml version="1.0" encoding="utf-8"?>
<!-- Generator: Adobe Illustrator 21.0.0, SVG Export Plug-In . SVG Version: 6.00 Build 0)  -->
<svg version="1.1" id="Слой_1" xmlns="http://www.w3.org/2000/svg" xmlns:xlink="http://www.w3.org/1999/xlink" x="0px" y="0px"
	 viewBox="0 0 64 64" style="enable-background:new 0 0 64 64;" xml:space="preserve">
<style type="text/css">
	.st0{fill:#9858AE;}
	.st1{fill:#1A9777;}
	.st2{fill:#1794D4;}
	.st3{fill:#D94700;}
	.st4{fill:#F4A952;}
	.st5{fill:#50BCAB;}
	.st6{fill:#B29D12;}
	.st7{fill:#C8283C;}
	.st8{fill:#1094D2;}
	.st9{fill:#FFDD00;}
	.st10{fill-rule:evenodd;clip-rule:evenodd;fill:#1A9777;}
</style>
<g>
	<path d="M48,19h-3V0H19v19h-3c-1.7,0-3,1.3-3,3v23c0,10.5,8.5,19,19,19s19-8.5,19-19V22C51,20.3,49.7,19,48,19z M21,2h22v14H21V2z
		 M21,17h22v2H21V17z M49,45c0,9.4-7.6,17-17,17s-17-7.6-17-17V22c0-0.6,0.4-1,1-1h32c0.6,0,1,0.4,1,1V45z M23,14h4V9h-4V14z M24,10
		h2v3h-2V10z M37,14h4V9h-4V14z M38,10h2v3h-2V10z M19,43c0,7.2,5.8,13,13,13s13-5.8,13-13V25H19V43z M20,41v-2v-3v-2v-3v-2v-3h24v3
		v2v3v2v3v2v2c0,0.3,0,0.7-0.1,1c-0.1,0.7-0.2,1.4-0.3,2c-1.3,5.2-6,9-11.6,9s-10.3-3.8-11.6-9c-0.2-0.6-0.3-1.3-0.3-2
		c0-0.3-0.1-0.7-0.1-1V41z"/>
	<path class="st9" d="M44,29v2H20v-2H44z M20,36h24v-2H20V36z M20,41h24v-2H20V41z M20.4,46h23.2c0.2-0.6,0.3-1.3,0.3-2H20.1
		C20.1,44.7,20.2,45.4,20.4,46z M43,17H21v2h22V17z"/>
</g>
</svg>
