<?xml version="1.0" encoding="utf-8"?>
<!-- Generator: Adobe Illustrator 21.0.0, SVG Export Plug-In . SVG Version: 6.00 Build 0)  -->
<svg version="1.1" id="Слой_1" xmlns="http://www.w3.org/2000/svg" xmlns:xlink="http://www.w3.org/1999/xlink" x="0px" y="0px"
	 viewBox="0 0 64 64" style="enable-background:new 0 0 64 64;" xml:space="preserve">
<style type="text/css">
	.st0{fill:#9858AE;}
	.st1{fill:#1A9777;}
	.st2{fill:#1794D4;}
	.st3{fill:#D94700;}
	.st4{fill:#F4A952;}
	.st5{fill:#50BCAB;}
	.st6{fill:#B29D12;}
	.st7{fill:#C8283C;}
	.st8{fill:#1094D2;}
	.st9{fill:#FFDD00;}
	.st10{fill-rule:evenodd;clip-rule:evenodd;fill:#1A9777;}
</style>
<g>
	<path class="st9" d="M33,20v12.1c0.7,0.2,1.4,0.6,1.9,1.1l8.2-3.4c0.8-0.3,1.6,0.1,2,0.8c0,0,0,0,0,0l7.4-3c-1-2.4-2.4-4.6-4.1-6.5
		l-2.1,2.1l-1.4-1.4l2.1-2.1c-2.9-2.7-6.6-4.6-10.6-5.4l-2.3-0.3c-0.3,0-0.6,0-0.9-0.1v2.5h-1V19C32.6,19,33,19.4,33,20z"/>
	<path d="M53.2,17.7l1.5-1.5c0.8-0.8,0.8-2,0-2.8s-2-0.8-2.8,0l-1.5,1.5c-4-3.4-8.9-5.8-14.3-6.6V6c1.7,0,3-1.3,3-3s-1.3-3-3-3h-8
		c-1.7,0-3,1.3-3,3s1.3,3,3,3v2.3C14.4,10.2,4,21.9,4,36c0,15.5,12.5,28,28,28c15.5,0,28-12.5,28-28C60,29,57.4,22.6,53.2,17.7z
		 M36,2c0.6,0,1,0.4,1,1s-0.4,1-1,1V2z M33,2h2v2h-2V2z M30,2h2v2h-2V2z M30,6h4v2.1C33.3,8,32.7,8,32,8s-1.3,0-2,0.1V6z M27,3
		c0-0.6,0.4-1,1-1h1v2h-1C27.4,4,27,3.6,27,3z M32,62C17.7,62,6,50.3,6,36c0-14.3,11.7-26,26-26c14.3,0,26,11.7,26,26
		C58,50.3,46.3,62,32,62z M33,13L33,13l-2,0v0C18.8,13.5,9,23.6,9,36c0,12.4,9.8,22.5,22,23v0h2v0c12.2-0.5,22-10.6,22-23
		C55,23.6,45.2,13.5,33,13z M48.2,50.8l-2.1-2.1l-1.4,1.4l2.1,2.1c-3.7,3.4-8.5,5.5-13.8,5.7v-2.5h-2V58c-5.3-0.2-10.1-2.4-13.8-5.7
		l2.1-2.1l-1.4-1.4l-2.1,2.1c-3.4-3.7-5.5-8.5-5.7-13.8h3v-2h-3c0.2-5.3,2.4-10.1,5.7-13.8l2.1,2.1l1.4-1.4l-2.1-2.1
		c3.7-3.4,8.5-5.5,13.8-5.7v2.5h1h1V14c0.3,0,0.6,0,0.9,0.1c0.8,0.1,1.6,0.2,2.3,0.3c4.1,0.8,7.7,2.7,10.6,5.4l-2.1,2.1l1.4,1.4
		l2.1-2.1c1.7,1.9,3.1,4.1,4.1,6.5c0.9,2.3,1.5,4.7,1.6,7.3h-3v2h3C53.7,42.3,51.6,47.1,48.2,50.8z M45,30.6c-0.3-0.8-1.2-1.1-2-0.8
		l-8.2,3.4c-0.5-0.5-1.1-0.9-1.9-1.1V20c0-0.6-0.4-1-1-1s-1,0.4-1,1v12.1c-1.7,0.4-3,2-3,3.9c0,2.2,1.8,4,4,4c2.2,0,4-1.8,4-4
		c0,0,0,0,0,0l8.2-3.4C44.9,32.3,45.3,31.4,45,30.6C45,30.7,45,30.7,45,30.6z M32,39c-1.7,0-3-1.3-3-3c0-1.7,1.3-3,3-3
		c1.7,0,3,1.3,3,3C35,37.7,33.7,39,32,39z M33,36c0,0.6-0.4,1-1,1c-0.6,0-1-0.4-1-1c0-0.6,0.4-1,1-1C32.6,35,33,35.4,33,36z"/>
</g>
</svg>
