<?xml version="1.0" encoding="UTF-8"?>
<!-- Generator: Adobe Illustrator 22.1.0, SVG Export Plug-In . SVG Version: 6.00 Build 0)  -->
<svg version="1.1" id="Слой_1" xmlns="http://www.w3.org/2000/svg" xmlns:xlink="http://www.w3.org/1999/xlink" x="0px" y="0px" viewBox="0 0 36 36" style="enable-background:new 0 0 36 36;" xml:space="preserve">
<style type="text/css">
	.st0{fill:#0055BB;}
</style>
<path class="st0" d="M26,0H10C7.8,0,6,1.8,6,4v28c0,2.2,1.8,4,4,4h16c2.2,0,4-1.8,4-4V4C30,1.8,28.2,0,26,0z M28,32c0,1.1-0.9,2-2,2  H10c-1.1,0-2-0.9-2-2V4c0-1.1,0.9-2,2-2h16c1.1,0,2,0.9,2,2V32z M26.5,5h-17C9.2,5,9,5.2,9,5.5v24C9,29.8,9.2,30,9.5,30h17  c0.3,0,0.5-0.2,0.5-0.5v-24C27,5.2,26.8,5,26.5,5z M26,29H10V6h16V29z M19,32c0,0.6-0.4,1-1,1s-1-0.4-1-1c0-0.6,0.4-1,1-1  S19,31.4,19,32z M16,3.5C16,3.2,16.2,3,16.5,3h3C19.8,3,20,3.2,20,3.5S19.8,4,19.5,4h-3C16.2,4,16,3.8,16,3.5z M36,18  c0,2.5-0.5,5-1.5,7.3c-0.1,0.2-0.3,0.3-0.5,0.3c-0.1,0-0.1,0-0.2,0c-0.3-0.1-0.4-0.4-0.3-0.7c1-2.2,1.5-4.5,1.5-6.9  s-0.5-4.7-1.5-6.9c-0.1-0.3,0-0.5,0.3-0.7c0.2-0.1,0.5,0,0.7,0.3C35.5,13,36,15.5,36,18z M2.5,11.1C1.5,13.3,1,15.6,1,18  s0.5,4.7,1.5,6.9c0.1,0.3,0,0.5-0.3,0.7c-0.1,0-0.1,0-0.2,0c-0.2,0-0.4-0.1-0.5-0.3C0.5,23,0,20.5,0,18c0-2.5,0.5-5,1.5-7.3  c0.1-0.3,0.4-0.4,0.7-0.3C2.5,10.6,2.6,10.9,2.5,11.1z M32,11.8c0.9,2,1.3,4.1,1.3,6.2s-0.4,4.2-1.3,6.2c-0.1,0.2-0.3,0.3-0.5,0.3  c-0.1,0-0.1,0-0.2,0c-0.3-0.1-0.4-0.4-0.3-0.7c0.8-1.8,1.2-3.8,1.2-5.8c0-2-0.4-4-1.2-5.8c-0.1-0.3,0-0.5,0.3-0.7  C31.6,11.4,31.9,11.5,32,11.8z M4.9,12.2C4.1,14,3.7,16,3.7,18c0,2,0.4,4,1.2,5.8c0.1,0.3,0,0.5-0.3,0.7c-0.1,0-0.1,0-0.2,0  c-0.2,0-0.4-0.1-0.5-0.3c-0.9-2-1.3-4.1-1.3-6.2s0.4-4.2,1.3-6.2c0.1-0.3,0.4-0.4,0.7-0.3C4.9,11.7,5,11.9,4.9,12.2z M14.1,19.9  c-0.2-0.3-0.1-0.7,0.5-1.2c0.6-0.5,1-0.6,1.2-0.5c0.2,0.1,0.5,0.3,0.8,0.6c0.2,0.2,0.5,0.1,0.9-0.2c0.4-0.3,0.8-0.6,1.2-1  c0.4-0.4,0.7-0.8,1-1.2c0.3-0.4,0.3-0.7,0.2-0.9c-0.3-0.3-0.4-0.5-0.6-0.8c-0.1-0.2,0.1-0.6,0.5-1.2c0.5-0.6,0.8-0.7,1.2-0.5  c0.3,0.2,0.6,0.5,0.9,0.7c0.1,0.1,0.2,0.4,0.2,0.7c0,0.3-0.1,0.7-0.2,1.2c-0.2,0.4-0.4,0.9-0.8,1.4c-0.3,0.5-0.8,1-1.3,1.6  c-0.5,0.5-1.1,1-1.6,1.3c-0.5,0.3-1,0.6-1.4,0.8c-0.4,0.2-0.8,0.2-1.2,0.2c-0.3,0-0.6-0.1-0.7-0.2C14.6,20.5,14.3,20.2,14.1,19.9z"/>
</svg>