<?xml version="1.0" encoding="UTF-8"?>
<!-- Generator: Adobe Illustrator 22.1.0, SVG Export Plug-In . SVG Version: 6.00 Build 0)  -->
<svg version="1.1" id="Слой_1" xmlns="http://www.w3.org/2000/svg" xmlns:xlink="http://www.w3.org/1999/xlink" x="0px" y="0px" viewBox="0 0 36 36" style="enable-background:new 0 0 36 36;" xml:space="preserve">
<style type="text/css">
	.st0{fill:#0055BB;}
</style>
<path class="st0" d="M32,18.5c0-1.4-1.1-2.5-2.5-2.5c-1.2,0-2.2,0.9-2.4,2h-0.6H26v-4c0-4.4-3.6-8-8-8s-8,3.6-8,8v4H8.9  c-0.2-1.1-1.2-2-2.4-2C5.1,16,4,17.1,4,18.5c0,1.2,0.9,2.2,2,2.5l0,3c0,6.1,4.9,11,11,11l0,0v1h2v-1c0,0,0,0,0,0c6,0,11-4.9,11-11  l0-3.1C31.2,20.7,32,19.7,32,18.5z M29.5,18c0.3,0,0.5,0.2,0.5,0.5S29.8,19,29.5,19S29,18.8,29,18.5S29.2,18,29.5,18z M18,8  c3.3,0,6,2.7,6,6v1h-4.5c-0.3,0-0.5,0.2-0.5,0.5s0.2,0.5,0.5,0.5H24v2h-4.5c-0.3,0-0.5,0.2-0.5,0.5s0.2,0.5,0.5,0.5H24v2h-4.5  c-0.3,0-0.5,0.2-0.5,0.5s0.2,0.5,0.5,0.5H24v1c0,3.3-2.7,6-6,6s-6-2.7-6-6v-1h4.5c0.3,0,0.5-0.2,0.5-0.5S16.8,21,16.5,21H12v-2h4.5  c0.3,0,0.5-0.2,0.5-0.5S16.8,18,16.5,18H12v-2h4.5c0.3,0,0.5-0.2,0.5-0.5S16.8,15,16.5,15H12v-1C12,10.7,14.7,8,18,8z M6.5,18  C6.8,18,7,18.2,7,18.5S6.8,19,6.5,19S6,18.8,6,18.5S6.2,18,6.5,18z M19,33C19,33,19,33,19,33l-2,0c-5,0-9-4.1-9-9l0-3.5  c0.5-0.4,0.8-0.9,0.9-1.5H10v4c0,4.4,3.6,8,8,8s8-3.6,8-8v-4h0.5h0.6c0.1,0.6,0.5,1.2,1,1.5l0,3.5C28,29,24,33,19,33z M18,3  c2.7,0,5.3,0.9,7.5,2.6c0.2,0.2,0.3,0.5,0.1,0.7c-0.1,0.1-0.2,0.2-0.4,0.2c-0.1,0-0.2,0-0.3-0.1C22.9,4.8,20.5,4,18,4  s-4.9,0.8-6.8,2.4c-0.2,0.2-0.5,0.1-0.7-0.1c-0.2-0.2-0.1-0.5,0.1-0.7C12.7,3.9,15.3,3,18,3z M7.6,4.3C7.4,4.1,7.5,3.8,7.7,3.6  C10.7,1.2,14.2,0,18,0s7.3,1.2,10.3,3.6c0.2,0.2,0.3,0.5,0.1,0.7c-0.1,0.1-0.2,0.2-0.4,0.2c-0.1,0-0.2,0-0.3-0.1  C24.9,2.2,21.5,1,18,1s-6.9,1.2-9.7,3.4C8.1,4.6,7.8,4.5,7.6,4.3z"/>
</svg>