<?xml version="1.0" encoding="UTF-8"?>
<!-- Generator: Adobe Illustrator 22.1.0, SVG Export Plug-In . SVG Version: 6.00 Build 0)  -->
<svg version="1.1" id="Слой_1" xmlns="http://www.w3.org/2000/svg" xmlns:xlink="http://www.w3.org/1999/xlink" x="0px" y="0px" viewBox="0 0 36 36" style="enable-background:new 0 0 36 36;" xml:space="preserve">
<style type="text/css">
	.st0{fill:#0055BB;}
</style>
<path class="st0" d="M15.5,17c0,0.8-0.7,1.5-1.5,1.5s-1.5-0.7-1.5-1.5s0.7-1.5,1.5-1.5S15.5,16.2,15.5,17z M22,18.5  c0.8,0,1.5-0.7,1.5-1.5s-0.7-1.5-1.5-1.5s-1.5,0.7-1.5,1.5S21.2,18.5,22,18.5z M35,31.9c0.7,1.2,1,2.6,1,4.1h-2  c0-0.8-0.1-1.6-0.4-2.3C32.2,35.1,30.2,36,28,36c-3.8,0-7-2.7-7.8-6.2C19.5,29.9,18.8,30,18,30c-2.3,0-4.4-0.7-6.2-1.9l-4.7,1.3  C4.1,30.2,2,32.9,2,36H0c0-4,2.7-7.5,6.5-8.5l3.4-0.9C8.5,25,7.5,23,7.1,20.8C5.3,20.2,4,18.5,4,16.5c0-1.5,0.8-2.9,2-3.7V12  C6,5.4,11.4,0,18,0c6.6,0,12,5.4,12,12v0.8c1.2,0.8,2,2.2,2,3.7c0,1.6-0.8,2.9-2.1,3.7c3.5,0.9,6.1,4,6.1,7.8  C36,29.4,35.6,30.7,35,31.9z M34,28c0-3.3-2.7-6-6-6s-6,2.7-6,6s2.7,6,6,6S34,31.3,34,28z M8,12h1v0.5v1.4v1c0,0.2,0.1,0.4,0.3,0.4  c0.2,0.1,0.4,0,0.5,0s0.2-0.2,0.2-0.4v-2.7l12.7-5.3l3.3,5.5v2.5c0,0.3,0.2,0.4,0.2,0.4c0.1,0,0.3,0.1,0.5,0  c0.2-0.1,0.3-0.3,0.3-0.4v-1v-1.4v-0.4l1-0.1c0-5.5-4.5-10-10-10C12.5,2,8,6.5,8,12z M18,28c0.7,0,1.4-0.1,2-0.2  c0.1-3.9,3.1-7.2,6.9-7.7c0-0.1,0-0.1,0-0.2l0.1-0.8l0.8-0.1c1.2-0.2,2.2-1.2,2.2-2.5c0-1.2-0.9-2.2-2-2.4v0.8  c0,0.6-0.3,1.1-0.8,1.3c-0.2,0.1-0.4,0.2-0.7,0.2c-0.3,0-0.5-0.1-0.8-0.2c-0.4-0.3-0.7-0.8-0.7-1.3v-2.2l-2.7-4.5L11,12.8v2  c0,0.5-0.3,1-0.7,1.3c-0.4,0.3-1,0.3-1.5,0.1C8.3,16,8,15.5,8,14.9v-0.8c-1.1,0.2-2,1.2-2,2.4c0,1.2,0.9,2.3,2.2,2.5L9,19.1L9,19.9  C9.5,24.5,13.3,28,18,28z M31.3,26.4l-0.7-0.7L27,29.1l-1.7-1.5l-0.7,0.8l2.3,2L31.3,26.4z"/>
</svg>